PERFORMER "John O'Callaghan"
TITLE "Essential Mix (2008-07-12) [TMB]"
FILE "Essential Mix_John O'Callaghan_2008_07_12.mp3" MP3
  TRACK 01 AUDIO
    PERFORMER "Essential Mix"
    TITLE "Intro"
    INDEX 01 00:00:00
  TRACK 02 AUDIO
    PERFORMER "Cirez D"
    TITLE "Stockholm Marathon"
    INDEX 01 01:47:58
  TRACK 03 AUDIO
    PERFORMER "Marco V & Sander van Doorn"
    TITLE "Organic"
    INDEX 01 04:58:37
  TRACK 04 AUDIO
    PERFORMER "Maarten de Jong"
    TITLE "Mono (J.O.C. Remix)"
    INDEX 01 07:13:26
  TRACK 05 AUDIO
    PERFORMER "Jochen Miller"
    TITLE "Lost Connection (Artento Divini Remix)"
    INDEX 01 11:21:25
  TRACK 06 AUDIO
    PERFORMER "Axel Karakasis"
    TITLE Sincere
    INDEX 01 14:11:09
  TRACK 07 AUDIO
    PERFORMER "J.O.C."
    TITLE "Marshmallow"
    INDEX 01 15:21:59
  TRACK 08 AUDIO
    PERFORMER "Mr Sam vs. Human Resource"
    TITLE "Dominator"
    INDEX 01 18:53:39
  TRACK 09 AUDIO
    PERFORMER "Greg Downey"
    TITLE "King Dong (J.O.C. Edit)"
    INDEX 01 21:14:38
  TRACK 10 AUDIO
    PERFORMER "J.O.C."
    TITLE "Rotterdam"
    INDEX 01 22:53:05
  TRACK 11 AUDIO
    PERFORMER "Artento Divini"
    TITLE "Reflex"
    INDEX 01 24:59:54
  TRACK 12 AUDIO
    PERFORMER "Kimito Lopez"
    TITLE "Melkweg"
    INDEX 01 28:02:31
  TRACK 13 AUDIO
    PERFORMER "Blank & Jones feat. Bernard Sumner"
    TITLE "Miracle Cure (Martin Roth Nu-Style Dub)"
    INDEX 01 30:22:58
  TRACK 14 AUDIO
    PERFORMER "Marc Marberg with Kyau & Albert"
    TITLE "Neo Love"
    INDEX 01 32:58:54
  TRACK 15 AUDIO
    PERFORMER "A. Paul"
    TITLE "Offline"
    INDEX 01 35:04:57
  TRACK 16 AUDIO
    PERFORMER "Mandy Reid"
    TITLE "Century"
    INDEX 01 36:49:51
  TRACK 17 AUDIO
    PERFORMER "Timmy & Tommy"
    TITLE "Full Tiltin' (Joint Operations Centre Remix)"
    INDEX 01 39:39:10
  TRACK 18 AUDIO
    PERFORMER "Underworld"
    TITLE "Cowgirl (Joint Operations Centre Remix)"
    INDEX 01 41:58:54
  TRACK 19 AUDIO
    PERFORMER "Activa"
    TITLE "End Of Summer"
    INDEX 01 46:44:29
  TRACK 20 AUDIO
    PERFORMER "The Thrillseekers feat. Fisher"
    TITLE "The Last Time (Club Mix)"
    INDEX 01 51:08:38
  TRACK 21 AUDIO
    PERFORMER "Thomas Bronzwaer"
    TITLE "Certitude"
    INDEX 01 57:29:63
  TRACK 22 AUDIO
    PERFORMER "Mansun"
    TITLE "Wide Open Space (Greg Downey Remix)"
    INDEX 01 61:11:15
  TRACK 23 AUDIO
    PERFORMER "Dazzle"
    TITLE "Chaos Theory"
    INDEX 01 63:01:56
  TRACK 24 AUDIO
    PERFORMER "John O'Callaghan & Guiseppe Ottaviani"
    TITLE "Our Dimension"
    INDEX 01 66:28:53
  TRACK 25 AUDIO
    PERFORMER "Bryan Kearney"
    TITLE "You Will Never Be Forgotten (Activa Remix)"
    INDEX 01 70:40:07
  TRACK 26 AUDIO
    PERFORMER "Danny Powers"
    TITLE "Eternal Call"
    INDEX 01 73:25:08
  TRACK 27 AUDIO
    PERFORMER "Giuseppe Ottaviani"
    TITLE "No More Alone (John O'Callaghan Remix)"
    INDEX 01 75:42:33
  TRACK 28 AUDIO
    PERFORMER "Temple One"
    TITLE "Aurora"
    INDEX 01 80:16:53
  TRACK 29 AUDIO
    PERFORMER "Aitor Ronda"
    TITLE "Bolaian Buyaka (Reaky Remix)"
    INDEX 01 84:23:01
  TRACK 30 AUDIO
    PERFORMER "D-Unity"
    TITLE "New Beginning"
    INDEX 01 87:08:31
  TRACK 31 AUDIO
    PERFORMER "Sia"
    TITLE "The Girl You Lost To Cocaine (John O'Callaghan Analog Tech Rework)"
    INDEX 01 89:06:08
  TRACK 32 AUDIO
    PERFORMER "Cosmic Gate feat. Tiff Lacey"
    TITLE "Should've Known (Wippenberg Remix) (J.O.C. Rework)"
    INDEX 01 92:57:54
  TRACK 33 AUDIO
    PERFORMER "Mojado"
    TITLE "Kaktus (John O'Callaghan Rework)"
    INDEX 01 95:13:59
  TRACK 34 AUDIO
    PERFORMER "Joint Operations Centre"
    TITLE "New Jersey"
    INDEX 01 98:51:13
  TRACK 35 AUDIO
    PERFORMER "Woody van Eyden"
    TITLE "B.O.B (No Break Edit)"
    INDEX 01 104:09:55
  TRACK 36 AUDIO
    PERFORMER "John Gibbons & Scimon Tist"
    TITLE "Maktub"
    INDEX 01 109:20:60
  TRACK 37 AUDIO
    PERFORMER "Paul Webster"
    TITLE "Problems (Tribal Mix)"
    INDEX 01 111:22:22
  TRACK 38 AUDIO
    PERFORMER "Barry Connell"
    TITLE "Frizzbomb (Paul Webster Remix)"
    INDEX 01 113:15:25
  TRACK 39 AUDIO
    PERFORMER "John O'Callaghan feat. Audrey Gallagher"
    TITLE "Big Sky (Joint Operations Centre Rework)"
    INDEX 01 115:56:65
